<svg width="21" height="21" viewBox="0 0 21 21" fill="none" xmlns="http://www.w3.org/2000/svg">
<path d="M11.5574 3.55737C11.8074 3.30741 12.1465 3.16699 12.5 3.16699C12.8536 3.16699 13.1926 3.30741 13.4427 3.55737L19.4427 9.55737C19.6926 9.80741 19.8331 10.1465 19.8331 10.5C19.8331 10.8536 19.6926 11.1927 19.4427 11.4427L13.4427 17.4427C13.1912 17.6856 12.8544 17.82 12.5048 17.8169C12.1552 17.8139 11.8208 17.6737 11.5736 17.4265C11.3264 17.1793 11.1862 16.8448 11.1831 16.4952C11.1801 16.1456 11.3145 15.8088 11.5574 15.5574L15.1667 11.8334H2.50002C2.1464 11.8334 1.80726 11.6929 1.55721 11.4429C1.30716 11.1928 1.16669 10.8537 1.16669 10.5C1.16669 10.1464 1.30716 9.80728 1.55721 9.55723C1.80726 9.30718 2.1464 9.16671 2.50002 9.16671H15.1667L11.5574 5.44271C11.3074 5.19267 11.167 4.85359 11.167 4.50004C11.167 4.14649 11.3074 3.80741 11.5574 3.55737Z" fill="white"/>
</svg>
