<svg width="21" height="20" viewBox="0 0 21 20" fill="none" xmlns="http://www.w3.org/2000/svg">
<path d="M9.44332 16.9268C9.19328 17.1767 8.8542 17.3171 8.50065 17.3171C8.1471 17.3171 7.80802 17.1767 7.55798 16.9268L1.55798 10.9268C1.30802 10.6767 1.1676 10.3376 1.1676 9.98409C1.1676 9.63054 1.30802 9.29146 1.55798 9.04142L7.55798 3.04142C7.80945 2.79855 8.14626 2.66415 8.49585 2.66719C8.84545 2.67023 9.17986 2.81045 9.42708 3.05766C9.67429 3.30488 9.81451 3.63929 9.81755 3.98889C9.82059 4.33848 9.68619 4.67529 9.44332 4.92676L5.83398 8.65076L18.5007 8.65076C18.8543 8.65076 19.1934 8.79123 19.4435 9.04128C19.6935 9.29133 19.834 9.63047 19.834 9.98409C19.834 10.3377 19.6935 10.6769 19.4435 10.9269C19.1934 11.1769 18.8543 11.3174 18.5007 11.3174L5.83398 11.3174L9.44332 15.0414C9.69328 15.2915 9.8337 15.6305 9.8337 15.9841C9.8337 16.3376 9.69328 16.6767 9.44332 16.9268Z" fill="white"/>
</svg>
