<svg width="60" height="48" viewBox="0 0 60 48" fill="none" xmlns="http://www.w3.org/2000/svg">
<path d="M30.3187 7.9875L21.2438 15.3375C19.7344 16.5563 19.4438 18.75 20.5875 20.3156C21.7969 21.9844 24.15 22.3125 25.7719 21.0469L35.0813 13.8094C35.7375 13.3031 36.675 13.4156 37.1906 14.0719C37.7063 14.7281 37.5844 15.6656 36.9281 16.1813L34.9688 17.7L48 29.7V12H47.9344L47.5687 11.7656L40.7625 7.40625C39.3281 6.4875 37.65 6 35.9437 6C33.9 6 31.9125 6.70312 30.3187 7.9875ZM32.4563 19.65L27.6094 23.4188C24.6562 25.725 20.3719 25.125 18.1594 22.0875C16.0781 19.2281 16.6031 15.2344 19.35 13.0125L27.15 6.70313C26.0625 6.24375 24.8906 6.00937 23.7 6.00937C21.9375 6 20.2219 6.525 18.75 7.5L12 12V33H14.6437L23.2125 40.8188C25.05 42.4969 27.8906 42.3656 29.5687 40.5281C30.0844 39.9563 30.4312 39.2906 30.6094 38.5969L32.2031 40.0594C34.0312 41.7375 36.8812 41.6156 38.5594 39.7875C38.9812 39.3281 39.2906 38.7938 39.4875 38.2406C41.3063 39.4594 43.7812 39.2063 45.3094 37.5375C46.9875 35.7094 46.8656 32.8594 45.0375 31.1813L32.4563 19.65ZM1.5 12C0.675 12 0 12.675 0 13.5V33C0 34.6594 1.34062 36 3 36H6C7.65938 36 9 34.6594 9 33V12H1.5ZM4.5 30C4.89782 30 5.27936 30.158 5.56066 30.4393C5.84196 30.7206 6 31.1022 6 31.5C6 31.8978 5.84196 32.2794 5.56066 32.5607C5.27936 32.842 4.89782 33 4.5 33C4.10218 33 3.72064 32.842 3.43934 32.5607C3.15804 32.2794 3 31.8978 3 31.5C3 31.1022 3.15804 30.7206 3.43934 30.4393C3.72064 30.158 4.10218 30 4.5 30ZM51 12V33C51 34.6594 52.3406 36 54 36H57C58.6594 36 60 34.6594 60 33V13.5C60 12.675 59.325 12 58.5 12H51ZM54 31.5C54 31.1022 54.158 30.7206 54.4393 30.4393C54.7206 30.158 55.1022 30 55.5 30C55.8978 30 56.2794 30.158 56.5607 30.4393C56.842 30.7206 57 31.1022 57 31.5C57 31.8978 56.842 32.2794 56.5607 32.5607C56.2794 32.842 55.8978 33 55.5 33C55.1022 33 54.7206 32.842 54.4393 32.5607C54.158 32.2794 54 31.8978 54 31.5Z" fill="url(#paint0_linear_175_74)"/>
<defs>
<linearGradient id="paint0_linear_175_74" x1="30" y1="6" x2="30" y2="41.9965" gradientUnits="userSpaceOnUse">
<stop stop-color="#00D296"/>
<stop offset="1" stop-color="#22FFFF"/>
</linearGradient>
</defs>
</svg>
