<svg width="276" height="85" viewBox="0 0 276 85" fill="none" xmlns="http://www.w3.org/2000/svg">
<g clip-path="url(#clip0_175_185)">
<path d="M59.9533 63.2756C59.9533 65.8405 59.9706 68.4025 59.9447 70.9674C59.9331 72.1374 60.0771 73.2989 59.9706 74.4776C59.6452 78.1635 57.9464 81.0022 54.7964 82.91C51.9747 84.619 48.9053 85.0282 45.6977 84.3106C42.9969 83.7054 40.4285 82.6651 37.8083 81.7947C37.7018 81.7602 37.5492 81.7515 37.5319 81.6161C37.5117 81.4489 37.6787 81.4086 37.7882 81.3452C39.9045 80.1232 42.0237 78.9071 44.14 77.6794C44.3674 77.5468 44.5546 77.5324 44.7936 77.6534C48.1998 79.3595 52.4814 77.2211 52.945 73.1836C53.1869 71.0654 52.4209 69.2757 50.6991 67.9933C48.9686 66.705 47.0423 66.4399 45.0498 67.3074C42.8241 68.2757 41.7127 70.0625 41.5687 72.4631C41.5486 72.7945 41.4248 72.9732 41.1483 73.1288C38.5857 74.5813 36.0289 76.0453 33.472 77.5151C33.1668 77.6909 32.9077 77.7111 32.5881 77.5237C23.8378 72.4544 15.0558 67.4428 6.34292 62.313C2.28593 59.9239 0.235844 56.2322 0.149464 51.4972C0.12355 49.9899 0.143705 48.4827 0.0717215 46.9783C0.0458075 46.4106 0.152343 46.3645 0.627434 46.6383C8.41028 51.1369 16.1845 55.6529 23.9817 60.1256C27.1375 61.9355 30.5639 62.6185 34.189 62.2323C38.3324 61.7885 41.8595 60.0536 44.7302 57.0449C47.4858 54.1601 49.0291 50.7018 49.389 46.7132C49.5445 44.9725 49.4437 43.2319 49.4639 41.4912C49.4927 39.1568 51.8969 37.736 53.8779 38.9551C57.6844 41.301 59.7431 44.7247 59.818 49.2147C59.8957 53.9036 59.9965 58.5953 59.9447 63.2842L59.9533 63.2756Z" fill="white"/>
<path d="M76.6074 48.6353C76.6074 53.5288 76.6103 58.4194 76.6074 63.3129C76.6074 66.3821 75.712 69.1545 73.7886 71.5638C72.7002 72.9269 71.3526 73.9903 69.8295 74.8405C68.6893 75.4774 67.5721 76.1518 66.4434 76.8089C65.8819 77.1345 65.8531 77.1201 65.8531 76.4688C65.8531 69.4657 65.8531 62.4627 65.856 55.4596C65.856 53.4999 65.9107 51.5374 65.8473 49.5805C65.6314 43.0761 62.7981 38.0183 57.1143 34.8338C51.3758 31.6176 45.5538 31.8626 39.8527 35.122C38.8075 35.7214 37.7882 36.3756 36.7142 36.9174C35.1047 37.7301 33.1323 36.805 32.6803 35.0672C32.519 34.4447 32.5622 33.7934 32.6342 33.1681C33.1208 28.9432 35.2371 25.7932 38.9083 23.6635C42.7723 21.4185 46.6249 19.1533 50.4832 16.8997C53.6044 15.0754 56.6824 13.1676 59.8612 11.4528C63.7541 9.35193 67.6153 9.66894 71.2375 12.1676C73.636 13.8189 75.1706 16.1388 75.9912 18.9401C76.737 21.4848 77.094 24.1131 77.6641 26.6953C77.6901 26.8077 77.7448 26.9402 77.6238 27.0181C77.5087 27.093 77.4021 26.995 77.3014 26.9402C75.1994 25.727 73.1004 24.5108 70.9927 23.3033C70.7307 23.1534 70.6962 22.9401 70.6587 22.6808C70.2873 20.0381 68.6432 18.1418 66.2217 17.5567C62.7578 16.7152 59.2709 19.43 59.2278 22.9978C59.1903 26.2486 61.632 28.8193 64.8828 28.8999C65.8445 28.923 66.7774 28.678 67.6239 28.1939C67.9579 28.0037 68.2401 28.0325 68.5597 28.2198C71.0561 29.6896 73.5496 31.1565 76.0604 32.6003C76.4663 32.8338 76.6074 33.1104 76.6074 33.5629C76.5959 38.5889 76.5988 43.615 76.5988 48.641H76.6017L76.6074 48.6353Z" fill="white"/>
<path d="M9.81254 23.58C9.81254 24.6867 9.78951 25.7933 9.82406 26.8971C9.83846 27.3899 9.66857 27.6868 9.27698 27.9778C6.52146 30.0355 6.19321 34.076 8.62625 36.5112C10.2646 38.1539 12.2657 38.6813 14.4915 37.9493C16.6711 37.2345 17.9668 35.6783 18.3469 33.416C18.7327 31.122 17.6818 28.8597 15.7065 27.6551C15.4215 27.4821 15.3236 27.2833 15.3236 26.9663C15.3351 24.0008 15.3409 21.0353 15.3351 18.0698C15.3351 17.7038 15.4733 17.5021 15.79 17.3176C21.7819 13.868 27.7652 10.4068 33.7514 6.94851C36.622 5.29141 39.4496 3.5565 42.375 2.00026C45.6747 0.245179 49.15 0.0578603 52.6744 1.3576C54.4941 2.02909 56.0662 3.17032 57.7621 4.07525C58.027 4.21646 58.2775 4.38937 58.5453 4.52482C58.8966 4.7035 58.7987 4.82454 58.528 4.98305C54.8022 7.13295 51.0763 9.28286 47.3533 11.4385C43.0804 13.9112 38.7384 16.2801 34.5547 18.8969C30.2587 21.5829 27.6673 25.5743 26.9187 30.6004C26.0146 36.6553 27.9236 41.8024 32.3693 45.9927C33.8953 47.4308 35.7611 48.3702 37.5665 49.3991C38.2172 49.7709 38.9198 50.0648 39.3949 50.696C40.4429 52.085 40.1233 54.0275 38.6433 54.9525C37.1115 55.9093 35.4214 56.4021 33.6275 56.5866C30.6042 56.8949 27.9552 55.9151 25.3869 54.4194C19.9766 51.2695 14.5145 48.206 9.08407 45.0935C7.5321 44.203 5.91392 43.4105 4.45409 42.3701C1.90012 40.5516 0.417263 38.053 0.0775016 34.9434C-0.331364 31.2056 0.892354 27.9865 3.39738 25.2314C5.23727 23.2083 7.43133 21.5685 9.42959 19.7154C9.51021 19.6405 9.59371 19.5137 9.72616 19.5915C9.84421 19.6606 9.81254 19.8018 9.81254 19.9142C9.81254 21.1362 9.81254 22.361 9.81254 23.5829H9.81542L9.81254 23.58Z" fill="white"/>
<path d="M178.807 57.7318C178.536 57.7462 178.337 57.7663 178.141 57.7663C173.932 57.7663 169.722 57.7606 165.513 57.7779C165.043 57.7779 164.862 57.6367 164.727 57.19C161.628 47.0917 158.51 36.9993 155.398 26.9039C155.334 26.6993 155.268 26.4976 155.084 26.3016C155.072 26.4889 155.049 26.6763 155.049 26.8665C155.049 33.7773 155.049 40.6881 155.041 47.5989C155.041 48.0456 155.161 48.3281 155.544 48.599C157.756 50.1552 158.772 52.9968 158.101 55.6308C157.43 58.2649 155.242 60.2131 152.556 60.5647C149.489 60.9653 146.624 59.3168 145.49 56.4983C144.338 53.6366 145.248 50.4146 147.759 48.6019C148.142 48.3252 148.242 48.0399 148.24 47.6018C148.228 40.6708 148.231 33.7398 148.231 26.8088V26.0365C148.519 26.0192 148.755 25.9932 148.988 25.9932C153.137 25.9932 157.286 26.0048 161.436 25.976C162.014 25.9731 162.233 26.169 162.394 26.6964C165.478 36.7572 168.579 46.8122 171.677 56.8701C171.741 57.0747 171.821 57.2764 171.991 57.4724C172.003 57.2879 172.02 57.1006 172.02 56.9162C172.02 50.452 172.017 43.9879 172.031 37.5238C172.031 37.0886 171.888 36.8321 171.542 36.5814C169.319 34.9704 168.346 32.2412 169.002 29.538C169.621 26.9904 171.853 24.9903 174.499 24.6042C177.473 24.1719 180.402 25.8261 181.574 28.6043C182.76 31.4113 181.905 34.6851 179.463 36.4892C178.962 36.8581 178.789 37.2269 178.792 37.8321C178.812 44.1752 178.804 50.5183 178.804 56.8614V57.7289L178.807 57.7318Z" fill="white"/>
<path d="M198.084 25.9934C196.048 32.4431 194.047 38.7891 192.023 45.2042H204.093C202.129 38.8294 200.171 32.4806 198.187 26.0481C198.464 26.0251 198.657 25.9962 198.847 25.9962C200.73 25.9934 202.61 26.0049 204.493 25.9847C204.928 25.979 205.127 26.1231 205.262 26.5438C208.576 36.7198 211.902 46.893 215.224 57.0662C215.294 57.2737 215.34 57.4898 215.412 57.7665C214.07 57.7665 212.777 57.7665 211.487 57.7665C210.497 57.7665 209.503 57.7492 208.513 57.7751C208.107 57.7866 207.917 57.6771 207.796 57.2535C207.254 55.3716 206.655 53.5041 206.106 51.6251C205.987 51.2188 205.832 51.043 205.366 51.043C200.508 51.0631 195.651 51.0602 190.796 51.043C190.384 51.043 190.197 51.1553 190.073 51.5617C189.489 53.4724 188.87 55.3745 188.271 57.2794C188.182 57.5618 188.11 57.7751 187.724 57.7722C185.498 57.7521 183.272 57.7607 181.047 57.7578C180.969 57.7578 180.888 57.7348 180.739 57.7088C181.136 56.484 181.525 55.2765 181.919 54.0747C184.908 44.9592 187.902 35.8466 190.871 26.7254C191.061 26.1403 191.326 25.9588 191.931 25.9732C193.73 26.0193 195.533 25.9905 197.332 25.9905C197.548 25.9905 197.764 25.9905 198.084 25.9905V25.9934Z" fill="white"/>
<path d="M251.605 57.7664C249.912 57.7664 248.276 57.7664 246.641 57.7664C245.973 57.7664 245.305 57.7491 244.637 57.7721C244.277 57.7837 244.11 57.6741 244.003 57.3053C243.439 55.3888 242.829 53.4838 242.264 51.5674C242.155 51.1956 242.017 51.0457 241.611 51.0457C236.713 51.0602 231.815 51.0602 226.917 51.0457C226.509 51.0457 226.367 51.2071 226.258 51.5645C225.671 53.4752 225.066 55.3801 224.438 57.2793C224.375 57.4724 224.127 57.7404 223.963 57.7433C221.697 57.7721 219.431 57.7606 217.165 57.7548C217.108 57.7548 217.05 57.726 216.935 57.6943C217.154 56.9969 217.364 56.3081 217.588 55.6222C220.773 45.9332 223.963 36.2471 227.13 26.5552C227.283 26.0884 227.496 25.9846 227.942 25.9846C232.172 25.999 236.399 25.999 240.629 25.9846C241.075 25.9846 241.303 26.0884 241.452 26.5495C244.761 36.7284 248.089 46.9015 251.412 57.0747C251.478 57.2822 251.53 57.4955 251.605 57.7635V57.7664ZM228.204 45.2099H240.283C238.305 38.8091 236.35 32.4718 234.395 26.1374C234.337 26.146 234.277 26.1575 234.219 26.1662C232.221 32.492 230.223 38.8207 228.207 45.2099H228.204Z" fill="white"/>
<path d="M100.719 57.7088C100.719 57.3918 100.719 57.1295 100.719 56.8673C100.719 50.4031 100.716 43.9419 100.728 37.4778C100.728 37.0138 100.607 36.7054 100.221 36.4086C97.9836 34.665 97.137 31.6765 98.0786 28.9848C99.0115 26.319 101.491 24.5754 104.347 24.5754C108.11 24.5754 111.105 27.5899 111.001 31.3566C110.938 33.6477 109.904 35.4547 108.024 36.7832C107.831 36.9187 107.629 37.2097 107.629 37.4288C107.606 41.9476 107.612 46.4665 107.615 50.9824C107.615 51.0804 107.632 51.1784 107.644 51.3225H125.067V57.7088H100.716H100.719Z" fill="white"/>
<path d="M145.893 25.9931C145.588 26.7309 145.32 27.3793 145.055 28.0278C142.726 33.6907 140.39 39.3508 138.081 45.0195C137.88 45.5123 137.629 45.717 137.102 45.6564C136.722 45.6132 136.331 45.6795 135.951 45.6391C135.378 45.5786 135.187 45.7717 135.193 46.374C135.222 49.8986 135.208 53.4232 135.208 56.9506V57.7201H128.329V45.6478C127.592 45.6478 126.915 45.6305 126.241 45.6535C125.87 45.668 125.663 45.5469 125.51 45.1896C122.835 38.9041 120.146 32.6244 117.459 26.3419C117.431 26.2698 117.408 26.1978 117.362 26.0594C117.569 26.0335 117.739 25.996 117.906 25.996C120.071 25.9931 122.236 26.0047 124.401 25.9845C124.81 25.9816 125 26.1228 125.156 26.4975C126.837 30.4803 128.548 34.4544 130.226 38.4401C130.428 38.9214 130.67 39.1375 131.202 39.077C131.781 39.0107 132.49 39.2182 132.913 38.9445C133.307 38.6908 133.408 37.9704 133.621 37.4487C135.09 33.8348 136.564 30.2267 138.006 26.6012C138.199 26.1171 138.447 25.9758 138.939 25.9816C141.024 26.0047 143.109 25.9931 145.193 25.9931C145.392 25.9931 145.591 25.9931 145.896 25.9931H145.893Z" fill="white"/>
<path d="M246.264 26.0278H275.912V32.3565C275.656 32.3565 275.42 32.3565 275.184 32.3565C271.907 32.3565 268.627 32.3565 265.351 32.3565C264.815 32.3565 264.547 32.6178 264.547 33.1404C264.547 41.0628 264.547 48.9823 264.547 56.9046C264.547 57.164 264.547 57.4234 264.547 57.7231H257.663V32.3652H246.267V26.0278H246.264Z" fill="white"/>
</g>
<defs>
<clipPath id="clip0_175_185">
<rect width="275.912" height="84.1357" fill="white" transform="translate(0 0.512207)"/>
</clipPath>
</defs>
</svg>
