<svg width="55" height="56" viewBox="0 0 55 56" fill="none" xmlns="http://www.w3.org/2000/svg">
<path d="M46.8772 8.62286L52.6384 9.77442C52.9478 9.83629 53.2022 10.0632 53.2916 10.3691C53.3367 10.5177 53.3407 10.6758 53.3032 10.8265C53.2657 10.9772 53.188 11.1149 53.0784 11.225L48.3587 15.9482C47.7932 16.5105 47.0285 16.8268 46.2309 16.8282H42.3156L32.4844 26.6629C32.6719 27.3711 32.7064 28.1111 32.5856 28.8337C32.4647 29.5562 32.1912 30.2448 31.7834 30.8534C31.3755 31.462 30.8427 31.9767 30.2203 32.3632C29.598 32.7497 28.9004 32.9992 28.1741 33.0949C27.4477 33.1907 26.7093 33.1306 26.0081 32.9186C25.3068 32.7067 24.6587 32.3477 24.1071 31.8656C23.5554 31.3835 23.1128 30.7894 22.8087 30.1229C22.5047 29.4563 22.3462 28.7327 22.3438 28C22.3436 27.2088 22.5255 26.4282 22.8754 25.7185C23.2254 25.0089 23.7339 24.3893 24.3617 23.9077C24.9895 23.4261 25.7197 23.0955 26.4958 22.9414C27.2719 22.7873 28.073 22.8139 28.8372 23.0191L38.6719 13.181V9.27254C38.6719 8.47504 38.9881 7.70848 39.5519 7.14473L44.275 2.42161C44.3851 2.31205 44.5228 2.23438 44.6735 2.19685C44.8243 2.15932 44.9823 2.16334 45.1309 2.20848C45.4369 2.29786 45.6637 2.55223 45.7256 2.86161L46.8772 8.62286Z" fill="url(#paint0_linear_175_60)"/>
<path d="M6.87501 28.0002C6.87854 30.9495 7.51453 33.8637 8.74008 36.5462C9.96564 39.2287 11.7522 41.6173 13.9794 43.5506C16.2065 45.484 18.8224 46.9172 21.6505 47.7537C24.4787 48.5901 27.4533 48.8103 30.3738 48.3993C33.2943 47.9884 36.0927 46.9559 38.5802 45.3715C41.0677 43.7871 43.1865 41.6877 44.7936 39.2148C46.4008 36.7419 47.4589 33.9531 47.8966 31.0365C48.3343 28.12 48.1414 25.1434 47.3309 22.3077C47.2172 21.9764 47.172 21.6254 47.1982 21.2761C47.2244 20.9268 47.3214 20.5865 47.4833 20.2759C47.6452 19.9652 47.8686 19.6908 48.14 19.4693C48.4114 19.2478 48.725 19.0838 49.0617 18.9874C49.3985 18.8909 49.7513 18.864 50.0988 18.9083C50.4463 18.9526 50.7811 19.0671 51.0829 19.2449C51.3847 19.4227 51.6472 19.6601 51.8543 19.9426C52.0615 20.2251 52.209 20.5467 52.2878 20.888C53.8571 26.3795 53.559 32.2366 51.4403 37.5404C49.3216 42.8442 45.5021 47.2946 40.5811 50.1934C35.6601 53.0922 29.916 54.2754 24.25 53.5573C18.584 52.8393 13.3167 50.2606 9.27438 46.2259C5.2365 42.1846 2.65505 36.9167 1.93533 31.2494C1.21562 25.5821 2.3984 19.8362 5.29796 14.9139C8.19753 9.99162 12.6497 6.17163 17.9554 4.05371C23.2612 1.93579 29.1201 1.63987 34.6122 3.21242C35.2662 3.40358 35.8178 3.84584 36.1467 4.44253C36.4756 5.03923 36.5549 5.74184 36.3673 6.39683C36.1797 7.05182 35.7405 7.60593 35.1456 7.93805C34.5507 8.27017 33.8485 8.35331 33.1925 8.16929C30.1213 7.2874 26.8873 7.13112 23.7454 7.71279C20.6035 8.29446 17.6398 9.59817 15.0879 11.5211C12.536 13.444 10.4657 15.9335 9.04049 18.7933C7.61523 21.6531 6.87391 24.805 6.87501 28.0002Z" fill="url(#paint1_linear_175_60)"/>
<path d="M17.1876 28.0001C17.1878 29.879 17.7009 31.7222 18.6717 33.3309C19.6426 34.9395 21.0341 36.2526 22.6964 37.1285C24.3587 38.0044 26.2285 38.4098 28.1043 38.301C29.98 38.1923 31.7905 37.5735 33.3404 36.5113C34.89 35.4465 36.119 33.9783 36.8945 32.2656C37.67 30.5528 37.9625 28.6605 37.7404 26.7935C37.6803 26.3405 37.742 25.8796 37.9193 25.4583C38.0965 25.0371 38.3828 24.6707 38.7488 24.3968C39.1147 24.123 39.547 23.9517 40.0011 23.9004C40.4552 23.8492 40.9148 23.92 41.3326 24.1054C41.7502 24.2884 42.1118 24.5789 42.3805 24.9473C42.6493 25.3157 42.8155 25.7487 42.8622 26.2023C43.2358 29.3926 42.6068 32.6201 41.0628 35.4368C39.5187 38.2535 37.1361 40.5196 34.2456 41.9207C31.3551 43.3218 28.1002 43.7883 24.9326 43.2555C21.7649 42.7226 18.8417 41.217 16.5687 38.9474C14.2956 36.6778 12.7855 33.7568 12.2479 30.59C11.7103 27.4232 12.1718 24.1676 13.5685 21.275C14.9652 18.3824 17.2277 15.9963 20.042 14.448C22.8564 12.8996 26.0829 12.2658 29.2738 12.6345C29.6155 12.6662 29.9474 12.7658 30.2501 12.9274C30.5527 13.089 30.8201 13.3095 31.0365 13.5758C31.2529 13.8421 31.4139 14.1489 31.5102 14.4783C31.6065 14.8076 31.636 15.1529 31.5971 15.4938C31.5582 15.8347 31.4517 16.1645 31.2837 16.4637C31.1157 16.7629 30.8897 17.0256 30.6189 17.2363C30.3481 17.447 30.0379 17.6015 29.7066 17.6908C29.3753 17.7801 29.0295 17.8024 28.6894 17.7563C27.2445 17.5886 25.7804 17.7284 24.3934 18.1666C23.0063 18.6048 21.7277 19.3315 20.6414 20.299C19.5551 21.2664 18.6858 22.4527 18.0905 23.78C17.4953 25.1073 17.1875 26.5455 17.1876 28.0001Z" fill="url(#paint2_linear_175_60)"/>
<defs>
<linearGradient id="paint0_linear_175_60" x1="37.8362" y1="2.17139" x2="37.8362" y2="33.1392" gradientUnits="userSpaceOnUse">
<stop stop-color="#00D296"/>
<stop offset="1" stop-color="#22FFFF"/>
</linearGradient>
<linearGradient id="paint1_linear_175_60" x1="27.5051" y1="2.21631" x2="27.5051" y2="53.762" gradientUnits="userSpaceOnUse">
<stop stop-color="#00D296"/>
<stop offset="1" stop-color="#22FFFF"/>
</linearGradient>
<linearGradient id="paint2_linear_175_60" x1="27.4984" y1="12.5322" x2="27.4984" y2="43.4698" gradientUnits="userSpaceOnUse">
<stop stop-color="#00D296"/>
<stop offset="1" stop-color="#22FFFF"/>
</linearGradient>
</defs>
</svg>
